<svg width="391" height="118" viewBox="0 0 391 118" fill="none" xmlns="http://www.w3.org/2000/svg">
<path d="M364.143 0H351.143V13.0123H364.143V0Z" fill="white"/>
<path d="M364.143 65.0249H351.143V78.025H364.143V65.0249Z" fill="white"/>
<path d="M390.156 39.0126H377.155V52.0127H390.156V39.0126Z" fill="white"/>
<path d="M390.156 26.0125H377.155V39.0126H390.156V26.0125Z" fill="white"/>
<path d="M377.155 52.0248H364.143V65.0371H377.155V52.0248Z" fill="white"/>
<path d="M377.155 13.0245H364.143V26.0246H377.155V13.0245Z" fill="white"/>
<path d="M377.155 39.0126H364.143V52.0127H377.155V39.0126Z" fill="white"/>
<path d="M377.155 26.0125H364.143V39.0126H377.155V26.0125Z" fill="white"/>
<path d="M364.143 52.0248H351.143V65.0371H364.143V52.0248Z" fill="white"/>
<path d="M364.143 39.0126H351.143V52.0127H364.143V39.0126Z" fill="white"/>
<path d="M364.143 26.0125H351.143V39.0126H364.143V26.0125Z" fill="white"/>
<path d="M364.143 13.0245H351.143V26.0246H364.143V13.0245Z" fill="white"/>
<path d="M351.143 65.0249H338.143V78.025H351.143V65.0249Z" fill="white"/>
<path d="M351.143 52.0248H338.143V65.0371H351.143V52.0248Z" fill="white"/>
<path d="M351.143 39.0126H338.143V52.0127H351.143V39.0126Z" fill="white"/>
<path d="M351.143 26.0125H338.143V39.0126H351.143V26.0125Z" fill="white"/>
<path d="M351.143 13.0245H338.143V26.0246H351.143V13.0245Z" fill="white"/>
<path d="M351.143 0H338.143V13.0123H351.143V0Z" fill="white"/>
<path d="M338.143 65.0249H325.131V78.025H338.143V65.0249Z" fill="white"/>
<path d="M338.143 52.0248H325.131V65.0371H338.143V52.0248Z" fill="white"/>
<path d="M338.143 39.0126H325.131V52.0127H338.143V39.0126Z" fill="white"/>
<path d="M338.143 26.0125H325.131V39.0126H338.143V26.0125Z" fill="white"/>
<path d="M338.143 13.0245H325.131V26.0246H338.143V13.0245Z" fill="white"/>
<path d="M338.143 0H325.131V13.0123H338.143V0Z" fill="white"/>
<path d="M325.131 65.0249H312.131V78.025H325.131V65.0249Z" fill="white"/>
<path d="M325.131 52.0248H312.131V65.0371H325.131V52.0248Z" fill="white"/>
<path d="M325.131 39.0126H312.131V52.0127H325.131V39.0126Z" fill="white"/>
<path d="M325.131 26.0125H312.131V39.0126H325.131V26.0125Z" fill="white"/>
<path d="M325.131 13.0245H312.131V26.0246H325.131V13.0245Z" fill="white"/>
<path d="M325.131 0H312.131V13.0123H325.131V0Z" fill="white"/>
<path d="M312.131 65.0249H299.13V78.025H312.131V65.0249Z" fill="white"/>
<path d="M312.131 52.0248H299.13V65.0371H312.131V52.0248Z" fill="white"/>
<path d="M312.131 39.0126H299.13V52.0127H312.131V39.0126Z" fill="white"/>
<path d="M312.131 26.0125H299.13V39.0126H312.131V26.0125Z" fill="white"/>
<path d="M312.131 13.0245H299.13V26.0246H312.131V13.0245Z" fill="white"/>
<path d="M312.131 0H299.13V13.0123H312.131V0Z" fill="white"/>
<path d="M299.131 65.0249H286.118V78.025H299.131V65.0249Z" fill="white"/>
<path d="M299.131 52.0248H286.118V65.0371H299.131V52.0248Z" fill="white"/>
<path d="M299.131 39.0126H286.118V52.0127H299.131V39.0126Z" fill="white"/>
<path d="M299.131 26.0125H286.118V39.0126H299.131V26.0125Z" fill="white"/>
<path d="M299.131 13.0245H286.118V26.0246H299.131V13.0245Z" fill="white"/>
<path d="M299.131 0H286.118V13.0123H299.131V0Z" fill="white"/>
<path d="M286.118 65.0249H273.118V78.025H286.118V65.0249Z" fill="white"/>
<path d="M286.118 52.0248H273.118V65.0371H286.118V52.0248Z" fill="white"/>
<path d="M286.118 39.0126H273.118V52.0127H286.118V39.0126Z" fill="white"/>
<path d="M286.118 26.0125H273.118V39.0126H286.118V26.0125Z" fill="white"/>
<path d="M286.118 13.0245H273.118V26.0246H286.118V13.0245Z" fill="white"/>
<path d="M286.118 0H273.118V13.0123H286.118V0Z" fill="white"/>
<path d="M273.118 65.0249H260.118V78.025H273.118V65.0249Z" fill="white"/>
<path d="M273.118 52.0248H260.118V65.0371H273.118V52.0248Z" fill="white"/>
<path d="M273.118 39.0126H260.118V52.0127H273.118V39.0126Z" fill="white"/>
<path d="M273.118 26.0125H260.118V39.0126H273.118V26.0125Z" fill="white"/>
<path d="M273.118 13.0245H260.118V26.0246H273.118V13.0245Z" fill="white"/>
<path d="M273.118 0H260.118V13.0123H273.118V0Z" fill="white"/>
<path d="M260.118 65.0249H247.118V78.025H260.118V65.0249Z" fill="white"/>
<path d="M260.118 52.0248H247.118V65.0371H260.118V52.0248Z" fill="white"/>
<path d="M260.118 39.0126H247.118V52.0127H260.118V39.0126Z" fill="white"/>
<path d="M260.118 26.0125H247.118V39.0126H260.118V26.0125Z" fill="white"/>
<path d="M260.118 13.0245H247.118V26.0246H260.118V13.0245Z" fill="white"/>
<path d="M260.118 0H247.118V13.0123H260.118V0Z" fill="white"/>
<path d="M247.118 65.0249H234.105V78.025H247.118V65.0249Z" fill="white"/>
<path d="M247.118 52.0248H234.105V65.0371H247.118V52.0248Z" fill="white"/>
<path d="M247.118 39.0126H234.105V52.0127H247.118V39.0126Z" fill="white"/>
<path d="M247.118 26.0125H234.105V39.0126H247.118V26.0125Z" fill="white"/>
<path d="M247.118 13.0245H234.105V26.0246H247.118V13.0245Z" fill="white"/>
<path d="M247.118 0H234.105V13.0123H247.118V0Z" fill="white"/>
<path d="M234.106 65.0249H221.105V78.025H234.106V65.0249Z" fill="white"/>
<path d="M234.106 52.0248H221.105V65.0371H234.106V52.0248Z" fill="white"/>
<path d="M234.106 39.0126H221.105V52.0127H234.106V39.0126Z" fill="white"/>
<path d="M234.106 26.0125H221.105V39.0126H234.106V26.0125Z" fill="white"/>
<path d="M234.106 13.0245H221.105V26.0246H234.106V13.0245Z" fill="white"/>
<path d="M234.106 0H221.105V13.0123H234.106V0Z" fill="white"/>
<path d="M221.105 65.0249H208.105V78.025H221.105V65.0249Z" fill="white"/>
<path d="M221.105 52.0248H208.105V65.0371H221.105V52.0248Z" fill="white"/>
<path d="M221.105 39.0126H208.105V52.0127H221.105V39.0126Z" fill="white"/>
<path d="M221.105 26.0125H208.105V39.0126H221.105V26.0125Z" fill="white"/>
<path d="M221.105 13.0245H208.105V26.0246H221.105V13.0245Z" fill="white"/>
<path d="M221.105 0H208.105V13.0123H221.105V0Z" fill="white"/>
<path d="M208.105 65.0249H195.093V78.025H208.105V65.0249Z" fill="white"/>
<path d="M208.105 52.0248H195.093V65.0371H208.105V52.0248Z" fill="white"/>
<path d="M208.105 39.0126H195.093V52.0127H208.105V39.0126Z" fill="white"/>
<path d="M208.105 26.0125H195.093V39.0126H208.105V26.0125Z" fill="white"/>
<path d="M208.105 13.0245H195.093V26.0246H208.105V13.0245Z" fill="white"/>
<path d="M208.105 0H195.093V13.0123H208.105V0Z" fill="white"/>
<path d="M195.093 65.0249H182.093V78.025H195.093V65.0249Z" fill="white"/>
<path d="M195.093 52.0248H182.093V65.0371H195.093V52.0248Z" fill="white"/>
<path d="M195.093 39.0126H182.093V52.0127H195.093V39.0126Z" fill="white"/>
<path d="M195.093 26.0125H182.093V39.0126H195.093V26.0125Z" fill="white"/>
<path d="M195.093 13.0245H182.093V26.0246H195.093V13.0245Z" fill="white"/>
<path d="M195.093 0H182.093V13.0123H195.093V0Z" fill="white"/>
<path d="M182.093 65.0249H169.093V78.025H182.093V65.0249Z" fill="white"/>
<path d="M182.093 52.0248H169.093V65.0371H182.093V52.0248Z" fill="white"/>
<path d="M182.093 39.0126H169.093V52.0127H182.093V39.0126Z" fill="white"/>
<path d="M182.093 26.0125H169.093V39.0126H182.093V26.0125Z" fill="white"/>
<path d="M182.093 13.0245H169.093V26.0246H182.093V13.0245Z" fill="white"/>
<path d="M182.093 0H169.093V13.0123H182.093V0Z" fill="white"/>
<path d="M169.093 65.0249H156.08V78.025H169.093V65.0249Z" fill="white"/>
<path d="M169.093 52.0248H156.08V65.0371H169.093V52.0248Z" fill="white"/>
<path d="M169.093 39.0126H156.08V52.0127H169.093V39.0126Z" fill="white"/>
<path d="M169.093 26.0125H156.08V39.0126H169.093V26.0125Z" fill="white"/>
<path d="M169.093 13.0245H156.08V26.0246H169.093V13.0245Z" fill="white"/>
<path d="M169.093 0H156.08V13.0123H169.093V0Z" fill="white"/>
<path d="M156.08 65.0249H143.08V78.025H156.08V65.0249Z" fill="white"/>
<path d="M156.08 52.0248H143.08V65.0371H156.08V52.0248Z" fill="white"/>
<path d="M156.08 39.0126H143.08V52.0127H156.08V39.0126Z" fill="white"/>
<path d="M156.08 26.0125H143.08V39.0126H156.08V26.0125Z" fill="white"/>
<path d="M156.08 13.0245H143.08V26.0246H156.08V13.0245Z" fill="white"/>
<path d="M156.08 0H143.08V13.0123H156.08V0Z" fill="white"/>
<path d="M143.08 65.0249H130.08V78.025H143.08V65.0249Z" fill="white"/>
<path d="M143.08 52.0248H130.08V65.0371H143.08V52.0248Z" fill="white"/>
<path d="M143.08 39.0126H130.08V52.0127H143.08V39.0126Z" fill="white"/>
<path d="M143.08 26.0125H130.08V39.0126H143.08V26.0125Z" fill="white"/>
<path d="M143.08 13.0245H130.08V26.0246H143.08V13.0245Z" fill="white"/>
<path d="M143.08 0H130.08V13.0123H143.08V0Z" fill="white"/>
<path d="M130.08 65.0249H117.068V78.025H130.08V65.0249Z" fill="white"/>
<path d="M130.08 52.0248H117.068V65.0371H130.08V52.0248Z" fill="white"/>
<path d="M130.08 39.0126H117.068V52.0127H130.08V39.0126Z" fill="white"/>
<path d="M130.08 26.0125H117.068V39.0126H130.08V26.0125Z" fill="white"/>
<path d="M130.08 13.0245H117.068V26.0246H130.08V13.0245Z" fill="white"/>
<path d="M130.08 0H117.068V13.0123H130.08V0Z" fill="white"/>
<path d="M117.068 65.0249H104.068V78.025H117.068V65.0249Z" fill="white"/>
<path d="M117.068 52.0248H104.068V65.0371H117.068V52.0248Z" fill="white"/>
<path d="M117.068 39.0126H104.068V52.0127H117.068V39.0126Z" fill="white"/>
<path d="M117.068 26.0125H104.068V39.0126H117.068V26.0125Z" fill="white"/>
<path d="M117.068 13.0245H104.068V26.0246H117.068V13.0245Z" fill="white"/>
<path d="M117.068 0H104.068V13.0123H117.068V0Z" fill="white"/>
<path d="M104.068 65.0249H91.0676V78.025H104.068V65.0249Z" fill="white"/>
<path d="M104.068 52.0248H91.0676V65.0371H104.068V52.0248Z" fill="white"/>
<path d="M104.068 39.0126H91.0676V52.0127H104.068V39.0126Z" fill="white"/>
<path d="M104.068 26.0125H91.0676V39.0126H104.068V26.0125Z" fill="white"/>
<path d="M104.068 13.0245H91.0676V26.0246H104.068V13.0245Z" fill="white"/>
<path d="M104.068 0H91.0676V13.0123H104.068V0Z" fill="white"/>
<path d="M91.0676 65.0249H78.0675V78.025H91.0676V65.0249Z" fill="white"/>
<path d="M91.0676 52.0248H78.0675V65.0371H91.0676V52.0248Z" fill="white"/>
<path d="M91.0676 39.0126H78.0675V52.0127H91.0676V39.0126Z" fill="white"/>
<path d="M91.0676 26.0125H78.0675V39.0126H91.0676V26.0125Z" fill="white"/>
<path d="M91.0676 13.0245H78.0675V26.0246H91.0676V13.0245Z" fill="white"/>
<path d="M91.0676 0H78.0675V13.0123H91.0676V0Z" fill="white"/>
<path d="M78.0675 78.0372H65.0552V91.0374H78.0675V78.0372Z" fill="white"/>
<path d="M78.0675 65.0249H65.0552V78.025H78.0675V65.0249Z" fill="white"/>
<path d="M78.0675 52.0248H65.0552V65.0371H78.0675V52.0248Z" fill="white"/>
<path d="M78.0675 39.0126H65.0552V52.0127H78.0675V39.0126Z" fill="white"/>
<path d="M78.0675 26.0125H65.0552V39.0126H78.0675V26.0125Z" fill="white"/>
<path d="M78.0675 13.0245H65.0552V26.0246H78.0675V13.0245Z" fill="white"/>
<path d="M78.0675 0H65.0552V13.0123H78.0675V0Z" fill="white"/>
<path d="M65.0552 91.0252H52.0551V104.037H65.0552V91.0252Z" fill="white"/>
<path d="M65.0552 78.0372H52.0551V91.0374H65.0552V78.0372Z" fill="white"/>
<path d="M65.0552 65.0249H52.0551V78.025H65.0552V65.0249Z" fill="white"/>
<path d="M65.0552 52.0248H52.0551V65.0371H65.0552V52.0248Z" fill="white"/>
<path d="M65.0552 39.0126H52.0551V52.0127H65.0552V39.0126Z" fill="white"/>
<path d="M65.0552 26.0125H52.0551V39.0126H65.0552V26.0125Z" fill="white"/>
<path d="M65.0552 13.0245H52.0551V26.0246H65.0552V13.0245Z" fill="white"/>
<path d="M65.0552 0H52.0551V13.0123H65.0552V0Z" fill="white"/>
<path d="M52.0551 104.037H39.0549V117.038H52.0551V104.037Z" fill="white"/>
<path d="M52.0551 65.0249H39.0549V78.025H52.0551V65.0249Z" fill="white"/>
<path d="M52.0551 52.0248H39.0549V65.0371H52.0551V52.0248Z" fill="white"/>
<path d="M52.0551 39.0126H39.0549V52.0127H52.0551V39.0126Z" fill="white"/>
<path d="M52.0551 26.0125H39.0549V39.0126H52.0551V26.0125Z" fill="white"/>
<path d="M52.0551 13.0245H39.0549V26.0246H52.0551V13.0245Z" fill="white"/>
<path d="M52.0551 0H39.0549V13.0123H52.0551V0Z" fill="white"/>
<path d="M39.0549 65.0249H26.0426V78.025H39.0549V65.0249Z" fill="white"/>
<path d="M39.0549 52.0248H26.0426V65.0371H39.0549V52.0248Z" fill="white"/>
<path d="M39.0549 39.0126H26.0426V52.0127H39.0549V39.0126Z" fill="white"/>
<path d="M39.0549 26.0125H26.0426V39.0126H39.0549V26.0125Z" fill="white"/>
<path d="M39.0549 13.0245H26.0426V26.0246H39.0549V13.0245Z" fill="white"/>
<path d="M39.0549 0H26.0426V13.0123H39.0549V0Z" fill="white"/>
<path d="M26.0426 52.0248H13.0425V65.0371H26.0426V52.0248Z" fill="white"/>
<path d="M26.0426 39.0126H13.0425V52.0127H26.0426V39.0126Z" fill="white"/>
<path d="M26.0426 26.0125H13.0425V39.0126H26.0426V26.0125Z" fill="white"/>
<path d="M26.0426 13.0245H13.0425V26.0246H26.0426V13.0245Z" fill="white"/>
<path d="M13.0425 39.0126H0.0423584V52.0127H13.0425V39.0126Z" fill="white"/>
<path d="M13.0425 26.0125H0.0423584V39.0126H13.0425V26.0125Z" fill="white"/>
</svg>
